<svg width="64" height="64" viewBox="0 0 64 64" xmlns="http://www.w3.org/2000/svg" role="img" aria-labelledby="title">
  <title id="title">GitHub</title>
  <circle cx="32" cy="32" r="30" fill="#24292F"/>
  <path d="M32 14c-10.2 0-18.5 8.3-18.5 18.5 0 8.2 5.3 15.1 12.7 17.6.9.2 1.2-.4 1.2-.9v-3.1c-5.2 1.1-6.3-2.2-6.3-2.2-.8-2.1-2-2.6-2-2.6-1.7-1.2.1-1.2.1-1.2 1.9.1 2.9 2 2.9 2 1.7 2.9 4.5 2.1 5.6 1.6.2-1.2.7-2.1 1.2-2.6-4.2-.5-8.6-2.1-8.6-9.3 0-2 0.7-3.6 1.9-4.9-.2-.5-.8-2.4.2-5 0 0 1.5-.5 5 .2a17.1 17.1 0 019 0c3.5-.7 5-.2 5-.2 1 2.6.4 4.5.2 5 1.2 1.3 1.9 2.9 1.9 4.9 0 7.2-4.4 8.8-8.6 9.3.7.6 1.3 1.8 1.3 3.6v5.3c0 .5.3 1.1 1.2.9a18.5 18.5 0 0012.7-17.6C50.5 22.3 42.2 14 32 14z" fill="#fff"/>
</svg>
